<!DOCTYPE svg PUBLIC "-//W3C//DTD SVG 1.1//EN" "http://www.w3.org/Graphics/SVG/1.1/DTD/svg11.dtd">
<!-- Uploaded to: SVG Repo, www.svgrepo.com, Transformed by: SVG Repo Mixer Tools -->
<svg fill="#008a30" width="800px" height="800px" viewBox="0 0 16 16" xmlns="http://www.w3.org/2000/svg" stroke="#008a30">
<g id="SVGRepo_bgCarrier" stroke-width="0"/>
<g id="SVGRepo_tracerCarrier" stroke-linecap="round" stroke-linejoin="round"/>
<g id="SVGRepo_iconCarrier"> <g> <path d="M1,15h1.8V6H1Zm12.6-9.38H10L10.64,4a3.31,3.31,0,0,0,.21-1.76A2.72,2.72,0,0,0,10.21.87,2.77,2.77,0,0,0,9.54.31,1.17,1.17,0,0,0,8.65,0,1,1,0,0,0,8,.66c-.11.29-.22.59-.34.88l-.57,1.4L4,6v9h7.11a1.82,1.82,0,0,0,1.61-1l1.94-3.68A3,3,0,0,0,15,8.94V7.07A1.42,1.42,0,0,0,13.61,5.62Z"/> </g> </g>
</svg>